<mxfile host="app.diagrams.net" modified="2023-11-29T01:14:10.464Z" agent="Mozilla/5.0 (Macintosh; Intel Mac OS X 10_15_7) AppleWebKit/537.36 (KHTML, like Gecko) Chrome/119.0.0.0 Safari/537.36" version="22.1.4" etag="_GG8EGKKY1320CeO-13F" type="github">
  <diagram name="第 1 页" id="Svuxz_Y1lm8nLvzq79Qn">
    <mxGraphModel>
      <root>
        <mxCell id="0" />
        <mxCell id="1" parent="0" />
      </root>
    </mxGraphModel>
  </diagram>
</mxfile>
